<svg width="1512" height="1027" viewBox="0 0 1512 1027" fill="none" xmlns="http://www.w3.org/2000/svg">
<path d="M864 656C851.971 660.424 840.252 666.074 828.391 671.014C802.313 681.874 775.015 682.593 747.905 688.869C721.734 694.928 697.103 700.223 672.84 712.842C653.626 722.834 626.371 735.048 619.804 759.18C615.563 774.767 629.016 785.054 638.571 794.459C664.337 819.823 703.38 832.437 737.24 837.708C754.673 840.422 771.963 841.893 789.517 843.083C799.422 843.755 809.646 845.097 819.066 848.521C829.066 852.155 843.165 859.382 844.01 872.369C845.793 899.78 817.94 900.158 799.658 902.026C770.74 904.981 739.731 900.959 714.452 918.461C700.62 928.037 692.919 942.042 691.14 959.485C690.534 965.43 691.911 971.665 693.005 977.465C694.846 987.223 695.672 997.068 697.784 1006.81C698.996 1012.41 700.11 1018.05 702.446 1023" stroke="url(#paint0_linear_185_370)" stroke-width="5" stroke-linecap="square" stroke-dasharray="10 10"/>
<path fill-rule="evenodd" clip-rule="evenodd" d="M1512 696.59C1477.06 705.283 1438.64 702.606 1402.14 685.167L1369.9 669.766C1336.97 654.034 1298.15 657.056 1268.05 677.693L1239.41 697.332C1214.34 714.52 1180.49 710.875 1159.66 688.745C1136.5 664.145 1097.85 662.767 1073 685.654L1040.61 715.48C1008.85 744.736 962.521 751.833 923.452 733.43L885.601 715.601C858.909 703.028 829.381 697.69 799.977 700.123L520.319 723.261C489.362 725.823 458.363 718.828 431.506 703.221L383.454 675.297C352.074 657.062 312.342 662.29 286.747 688.022C281.215 693.584 274.894 698.299 267.988 702.017L211.123 732.629C175.226 751.953 131.737 750.613 97.0983 729.114C67.8373 710.953 32.1486 707.122 0 718.188V0H1512V696.59Z" fill="url(#paint1_linear_185_370)"/>
<defs>
<linearGradient id="paint0_linear_185_370" x1="741.5" y1="656" x2="741.5" y2="1023" gradientUnits="userSpaceOnUse">
<stop stop-opacity="0"/>
<stop offset="1"/>
</linearGradient>
<linearGradient id="paint1_linear_185_370" x1="0" y1="377.556" x2="1512" y2="377.556" gradientUnits="userSpaceOnUse">
<stop/>
<stop offset="1" stop-color="#292E49"/>
</linearGradient>
</defs>
</svg>
