<svg width="85" height="77" viewBox="0 0 85 77" fill="none" xmlns="http://www.w3.org/2000/svg">
<path d="M21.308 15.065C17.8431 15.5164 15.6273 19.0343 15.5118 24.2741C15.4801 25.3979 15.5014 25.5445 15.7115 25.8805C16.1842 26.6366 16.3101 26.6678 19.3969 26.6995L22.1478 26.7312V41.8728C22.1478 51.7434 22.19 57.2562 22.2529 57.6972C22.5992 59.8709 24.332 61.5823 26.5057 61.8974C27.4927 62.0342 53.755 62.0342 54.7524 61.8974C56.9053 61.5927 58.7004 59.7976 59.0052 57.6446C59.0577 57.2349 59.1102 54.3056 59.1102 51.0294V45.149L57.43 46.8292L55.7602 48.499L55.729 53.0773C55.6973 57.6135 55.6973 57.6452 55.4664 57.9707C54.9521 58.6847 55.9916 58.6426 40.629 58.6426C25.2664 58.6426 26.306 58.6847 25.7917 57.9707L25.5608 57.6452L25.4979 39.6892C25.4557 25.9439 25.4136 21.5965 25.3091 21.1665C25.0361 19.9694 24.4583 19.077 23.7022 18.6776C23.5446 18.5934 23.1666 18.4889 22.8624 18.4363C22.5265 18.3838 28.0918 18.3417 36.9124 18.3313C51.1616 18.3209 51.5397 18.3209 52.1908 18.531C53.3879 18.8987 54.2594 19.5497 54.9313 20.5679C55.7296 21.8072 55.7503 21.9434 55.7503 27.1728V31.814L57.4409 30.1338L59.1316 28.4536L59.079 25.3033C59.0369 22.5206 59.0057 22.0588 58.806 21.3131C58.0291 18.3521 55.7717 16.0941 52.7576 15.2543L51.9178 15.013L36.902 15.0026C28.6476 14.9911 21.6226 15.0229 21.308 15.065Z" fill="#3C3C3C"/>
<path d="M63.6983 26.8361C63.1419 26.962 62.5641 27.3925 61.5771 28.3899L60.7373 29.2407L63.6983 32.1913L66.6489 35.1523L67.6677 34.1232C68.8226 32.9469 69.117 32.4643 69.117 31.7082C69.1274 30.7212 68.9698 30.469 67.311 28.7893C66.4706 27.9282 65.61 27.1409 65.4103 27.0358C64.9375 26.8044 64.2126 26.7097 63.6983 26.8361Z" fill="#3C3C3C"/>
<path d="M35.0732 28.516C34.8423 28.5893 34.2963 29.0412 33.4772 29.8389L32.238 31.0464L31.797 30.6683C31.5448 30.4582 31.1667 30.2377 30.9462 30.1748C29.7595 29.8597 28.6571 30.9939 28.9826 32.2014C29.1506 32.8524 31.135 34.8368 31.7861 35.0048C32.6472 35.2461 32.8989 35.0891 34.8625 33.1566C36.9624 31.0984 37.1834 30.7942 37.1938 30.1114C37.2152 28.9783 36.1652 28.1904 35.0732 28.516Z" fill="#3C3C3C"/>
<path d="M40.1355 30.1961C39.6737 30.3324 39.1906 30.8472 39.0538 31.3511C38.8229 32.1909 39.3586 33.1046 40.2088 33.3355C40.4818 33.4088 42.4246 33.4406 45.8999 33.4198C51.1189 33.388 51.1818 33.388 51.549 33.1571C52.0425 32.8524 52.3259 32.3485 52.3259 31.7603C52.3259 31.1722 52.0425 30.6683 51.549 30.3636C51.1813 30.1327 51.1288 30.1327 45.8261 30.1113C42.7398 30.1015 40.3352 30.1332 40.1355 30.1961Z" fill="#3C3C3C"/>
<path d="M52.7474 37.242C49.0407 40.9592 45.9221 44.1303 45.8066 44.3092C45.5128 44.7398 42.415 51.5547 42.3412 51.9328C42.2569 52.3529 42.6667 53.1403 43.0869 53.3607C43.7484 53.7071 44.0422 53.6234 47.6652 51.9749C49.5451 51.1137 51.2669 50.2843 51.4978 50.1267C51.7287 49.9691 54.9627 46.8084 58.6804 43.1017L65.4428 36.3606L62.513 33.4308C60.9061 31.8244 59.5623 30.501 59.5306 30.501C59.4994 30.501 56.4438 33.5353 52.7474 37.242ZM48.7677 47.1969C49.5134 47.9426 50.1015 48.5827 50.0698 48.6145C50.0381 48.6462 49.2825 49.0029 48.4 49.4018L46.7827 50.1475L46.2788 49.6327L45.7645 49.1288L46.3631 47.8162C46.6886 47.1022 47.0245 46.3565 47.0978 46.1678C47.1821 45.9894 47.2871 45.8318 47.3287 45.8318C47.3714 45.8318 48.0219 46.4408 48.7677 47.1969Z" fill="#3C3C3C"/>
<path d="M35.0732 36.9163C34.8423 36.9897 34.2963 37.4416 33.4772 38.2393L32.238 39.4473L31.797 39.0693C31.5448 38.8592 31.1667 38.6387 30.9462 38.5758C29.7595 38.2606 28.6571 39.3948 28.9826 40.6023C29.1506 41.2534 31.135 43.2378 31.7861 43.4063C32.6576 43.6476 32.9203 43.4905 34.8735 41.5477C36.9739 39.4791 37.1834 39.1956 37.1938 38.5128C37.2152 37.3787 36.1652 36.5908 35.0732 36.9163Z" fill="#3C3C3C"/>
<path d="M40.1356 38.5966C39.6738 38.7329 39.1907 39.2477 39.0539 39.7516C38.823 40.581 39.3586 41.5051 40.1881 41.736C40.4086 41.7885 41.7107 41.8411 43.1491 41.8411H45.7217L47.4019 40.1609L49.0821 38.4812L44.7768 38.4916C42.4034 38.4916 40.3243 38.5441 40.1356 38.5966Z" fill="#3C3C3C"/>
<path d="M35.0731 45.3171C34.8422 45.3904 34.2962 45.8423 33.4771 46.64L32.2379 47.8475L31.7969 47.4694C31.5447 47.2593 31.1666 47.0388 30.9461 46.9759C29.7698 46.6608 28.657 47.795 28.9721 48.9921C29.0668 49.3176 29.3294 49.6743 30.0434 50.4097C30.5686 50.9557 31.1672 51.5017 31.3663 51.6275C31.8494 51.9214 32.6056 51.9214 33.0887 51.6275C33.5088 51.3649 36.8687 47.9733 37.058 47.627C37.2577 47.2385 37.2364 46.4507 36.9951 46.0622C36.6274 45.4221 35.7975 45.107 35.0731 45.3171Z" fill="#3C3C3C"/>
<rect x="3" y="2.50024" width="78.6176" height="71.9998" rx="7.5" stroke="#3C3C3C" stroke-width="5"/>
</svg>
