<svg width="46" height="46" viewBox="0 0 46 46" fill="none" xmlns="http://www.w3.org/2000/svg">
<path d="M32.637 0H13.363C4.991 0 0 4.991 0 13.363V32.614C0 41.009 4.991 46 13.363 46H32.614C40.986 46 45.977 41.009 45.977 32.637V13.363C46 4.991 41.009 0 32.637 0ZM34.5 35.075H11.5C10.557 35.075 9.775 34.293 9.775 33.35C9.775 32.407 10.557 31.625 11.5 31.625H34.5C35.443 31.625 36.225 32.407 36.225 33.35C36.225 34.293 35.443 35.075 34.5 35.075ZM34.5 24.725H11.5C10.557 24.725 9.775 23.943 9.775 23C9.775 22.057 10.557 21.275 11.5 21.275H34.5C35.443 21.275 36.225 22.057 36.225 23C36.225 23.943 35.443 24.725 34.5 24.725ZM34.5 14.375H11.5C10.557 14.375 9.775 13.593 9.775 12.65C9.775 11.707 10.557 10.925 11.5 10.925H34.5C35.443 10.925 36.225 11.707 36.225 12.65C36.225 13.593 35.443 14.375 34.5 14.375Z" fill="white"/>
<path d="M11.7246 35.1504H34.7246C35.668 35.1504 36.4492 34.3682 36.4492 33.4253C36.4492 32.4824 35.668 31.7002 34.7246 31.7002H11.7246C10.7812 31.7002 10 32.4824 10 33.4253C10 34.3682 10.7812 35.1504 11.7246 35.1504Z" fill="black"/>
<path d="M11.7246 24.8003H34.7246C35.668 24.8003 36.4492 24.0181 36.4492 23.0752C36.4492 22.1323 35.668 21.3501 34.7246 21.3501H11.7246C10.7812 21.3501 10 22.1323 10 23.0752C10 24.0181 10.7812 24.8003 11.7246 24.8003Z" fill="black"/>
<path d="M11.7246 14.4502H34.7246C35.668 14.4502 36.4492 13.668 36.4492 12.7251C36.4492 11.7822 35.668 11 34.7246 11H11.7246C10.7812 11 10 11.7822 10 12.7251C10 13.668 10.7812 14.4502 11.7246 14.4502Z" fill="black"/>
</svg>
