<svg width="46" height="46" viewBox="0 0 46 46" fill="none" xmlns="http://www.w3.org/2000/svg">
<path d="M32.6565 0H13.3825C5.01053 0 0.0195312 4.991 0.0195312 13.363V32.614C0.0195312 41.009 5.01053 46 13.3825 46H32.6335C41.0055 46 45.9965 41.009 45.9965 32.637V13.363C46.0195 4.991 41.0285 0 32.6565 0ZM34.5195 35.075H11.5195C10.5765 35.075 9.79453 34.293 9.79453 33.35C9.79453 32.407 10.5765 31.625 11.5195 31.625H34.5195C35.4625 31.625 36.2445 32.407 36.2445 33.35C36.2445 34.293 35.4625 35.075 34.5195 35.075ZM34.5195 24.725H11.5195C10.5765 24.725 9.79453 23.943 9.79453 23C9.79453 22.057 10.5765 21.275 11.5195 21.275H34.5195C35.4625 21.275 36.2445 22.057 36.2445 23C36.2445 23.943 35.4625 24.725 34.5195 24.725ZM34.5195 14.375H11.5195C10.5765 14.375 9.79453 13.593 9.79453 12.65C9.79453 11.707 10.5765 10.925 11.5195 10.925H34.5195C35.4625 10.925 36.2445 11.707 36.2445 12.65C36.2445 13.593 35.4625 14.375 34.5195 14.375Z" fill="white"/>
</svg>
